<mxfile host="app.diagrams.net" modified="2024-07-19T22:57:53.542Z" agent="Mozilla/5.0 (Macintosh; Intel Mac OS X 10_15_7) AppleWebKit/605.1.15 (KHTML, like Gecko) Version/17.3.1 Safari/605.1.15" version="24.7.2" etag="iyKECQVQNa0AqTdkf9WT" type="github">
  <diagram name="Page-1" id="hwLAa0LBe_-GDSsEqT2E">
    <mxGraphModel>
      <root>
        <mxCell id="0" />
        <mxCell id="1" parent="0" />
      </root>
    </mxGraphModel>
  </diagram>
</mxfile>
